<?xml version="1.0" encoding="UTF-8" standalone="no"?>
<!DOCTYPE svg PUBLIC "-//W3C//DTD SVG 1.1//EN" "http://www.w3.org/Graphics/SVG/1.1/DTD/svg11.dtd">
<svg width="100%" height="100%" viewBox="0 0 512 512" version="1.1" xmlns="http://www.w3.org/2000/svg" xmlns:xlink="http://www.w3.org/1999/xlink" xml:space="preserve" xmlns:serif="http://www.serif.com/" style="fill-rule:evenodd;clip-rule:evenodd;stroke-linejoin:round;stroke-miterlimit:2;">
    <style>
    .main { fill: #333; }
    @media (prefers-color-scheme: dark) {
      .main { fill: #CCC; }
    }
    </style>
    <g transform="matrix(2.00576,0,0,0.444299,-502.937,274.179)">
        <path d="M500.058,65.748C500.058,39.455 495.33,18.107 489.505,18.107L266.553,18.107C260.729,18.107 256,39.455 256,65.748L256,446.876C256,473.17 260.729,494.517 266.553,494.517L489.505,494.517C495.33,494.517 500.058,473.17 500.058,446.876L500.058,65.748Z" class="main"/>
    </g>
    <g transform="matrix(2.00576,0,0,0.448231,-502.937,48.7033)">
        <path d="M500.058,65.748C500.058,39.455 495.288,18.107 489.412,18.107L266.646,18.107C260.771,18.107 256,39.455 256,65.748L256,446.876C256,473.17 260.771,494.517 266.646,494.517L489.412,494.517C495.288,494.517 500.058,473.17 500.058,446.876L500.058,65.748Z" class="main"/>
    </g>
    <g transform="matrix(0.495241,0,0,0.633334,2.84469,-97.9461)">
        <path d="M243.434,195.073C243.434,185.278 233.265,177.327 220.74,177.327L38.226,177.327C25.701,177.327 15.532,185.278 15.532,195.073L15.532,271.971C15.532,281.765 25.701,289.717 38.226,289.717L220.74,289.717C233.265,289.717 243.434,281.765 243.434,271.971L243.434,195.073Z" class="main"/>
    </g>
    <g transform="matrix(0.495241,0,0,0.633334,124.601,-97.9461)">
        <path d="M243.434,195.073C243.434,185.278 233.265,177.327 220.74,177.327L38.226,177.327C25.701,177.327 15.532,185.278 15.532,195.073L15.532,271.971C15.532,281.765 25.701,289.717 38.226,289.717L220.74,289.717C233.265,289.717 243.434,281.765 243.434,271.971L243.434,195.073Z" class="main"/>
    </g>
    <g transform="matrix(0.495241,0,0,0.511111,247.606,-76.2728)">
        <path d="M243.434,199.316C243.434,187.18 233.265,177.327 220.74,177.327L38.226,177.327C25.701,177.327 15.532,187.18 15.532,199.316L15.532,267.728C15.532,279.864 25.701,289.717 38.226,289.717L220.74,289.717C233.265,289.717 243.434,279.864 243.434,267.728L243.434,199.316Z" class="main"/>
    </g>
</svg>
