<?xml version="1.0" encoding="UTF-8" standalone="no"?>
<!DOCTYPE svg PUBLIC "-//W3C//DTD SVG 1.1//EN" "http://www.w3.org/Graphics/SVG/1.1/DTD/svg11.dtd">
<svg width="100%" height="100%" viewBox="0 0 512 512" version="1.1" xmlns="http://www.w3.org/2000/svg" xmlns:xlink="http://www.w3.org/1999/xlink" xml:space="preserve" xmlns:serif="http://www.serif.com/" style="fill-rule:evenodd;clip-rule:evenodd;stroke-linejoin:round;stroke-miterlimit:2;">
    <style>
    .main { fill: #333; }
    @media (prefers-color-scheme: dark) {
      .main { fill: #CCC; }
    }
    </style>
    <g transform="matrix(0.965034,0,0,0.980005,2.43438,-0.881397)">
        <path d="M256,35.336C256,21.962 244.973,11.103 231.391,11.103L34.521,11.103C20.939,11.103 9.912,21.962 9.912,35.336L9.912,231.767C9.912,245.142 20.939,256 34.521,256L231.391,256C244.973,256 256,245.142 256,231.767L256,35.336Z" class="main"/>
    </g>
    <g transform="matrix(0.965034,0,0,0.980005,252.434,-0.881397)">
        <path d="M256,35.336C256,21.962 244.973,11.103 231.391,11.103L34.521,11.103C20.939,11.103 9.912,21.962 9.912,35.336L9.912,231.767C9.912,245.142 20.939,256 34.521,256L231.391,256C244.973,256 256,245.142 256,231.767L256,35.336Z" class="main"/>
    </g>
    <g transform="matrix(0.965034,0,0,0.980005,2.43438,251.119)">
        <path d="M256,35.336C256,21.962 244.973,11.103 231.391,11.103L34.521,11.103C20.939,11.103 9.912,21.962 9.912,35.336L9.912,231.767C9.912,245.142 20.939,256 34.521,256L231.391,256C244.973,256 256,245.142 256,231.767L256,35.336Z" class="main"/>
    </g>
    <g transform="matrix(0.965034,0,0,0.980005,252.434,251.119)">
        <path d="M256,35.336C256,21.962 244.973,11.103 231.391,11.103L34.521,11.103C20.939,11.103 9.912,21.962 9.912,35.336L9.912,231.767C9.912,245.142 20.939,256 34.521,256L231.391,256C244.973,256 256,245.142 256,231.767L256,35.336Z" class="main"/>
    </g>
</svg>
