<?xml version="1.0" encoding="UTF-8" standalone="no"?>
<!DOCTYPE svg PUBLIC "-//W3C//DTD SVG 1.1//EN" "http://www.w3.org/Graphics/SVG/1.1/DTD/svg11.dtd">
<svg width="100%" height="100%" viewBox="0 0 512 512" version="1.1" xmlns="http://www.w3.org/2000/svg" xmlns:xlink="http://www.w3.org/1999/xlink" xml:space="preserve" xmlns:serif="http://www.serif.com/" style="fill-rule:evenodd;clip-rule:evenodd;stroke-linecap:round;stroke-linejoin:round;stroke-miterlimit:1.5;">
    <g transform="matrix(1.0962,0,0,1.0962,-22.8472,-22.8472)">
        <circle cx="256" cy="256" r="213.22" style="fill:rgb(255,0,0);stroke:black;stroke-width:27.98px;"/>
    </g>
    <path d="M63.363,258.378L63.217,258.286L167.784,92.941L228.636,131.425L148.348,258.378L228.636,385.332L167.784,423.816L63.217,258.471L63.363,258.378Z" style="fill:rgb(0,255,255);"/>
    <g transform="matrix(-1,0,0,1,512.463,-0.598397)">
        <path d="M63.363,258.378L63.217,258.286L167.784,92.941L228.636,131.425L148.348,258.378L228.636,385.332L167.784,423.816L63.217,258.471L63.363,258.378Z" style="fill:rgb(0,255,255);"/>
    </g>
    <g transform="matrix(2.06347,0,0,2.34166,-373.661,-312.389)">
        <g transform="matrix(50,0,0,50,228.8,256.684)">
            <path d="M0.068,-0.716L0.267,-0.716L0.267,-0.579L0.068,-0.579L0.068,-0.716ZM0.068,-0.519L0.267,-0.519L0.267,-0.016C0.267,0.049 0.262,0.094 0.253,0.121C0.244,0.147 0.227,0.169 0.202,0.186C0.177,0.202 0.141,0.21 0.094,0.21C0.056,0.21 0.008,0.205 -0.049,0.193L-0.019,0.049C-0.003,0.052 0.009,0.054 0.016,0.054C0.033,0.054 0.046,0.048 0.055,0.036C0.063,0.025 0.068,0.002 0.068,-0.033L0.068,-0.519Z" style="fill:white;fill-rule:nonzero;"/>
        </g>
        <g transform="matrix(50,0,0,50,245.45,256.684)">
            <path d="M0.025,-0.144L0.222,-0.163C0.23,-0.139 0.242,-0.122 0.256,-0.112C0.271,-0.102 0.291,-0.097 0.315,-0.097C0.342,-0.097 0.362,-0.103 0.377,-0.114C0.388,-0.123 0.394,-0.133 0.394,-0.146C0.394,-0.16 0.387,-0.171 0.372,-0.179C0.361,-0.185 0.332,-0.191 0.286,-0.2C0.217,-0.212 0.169,-0.223 0.142,-0.233C0.115,-0.243 0.093,-0.261 0.074,-0.285C0.056,-0.309 0.047,-0.337 0.047,-0.368C0.047,-0.402 0.057,-0.432 0.077,-0.457C0.097,-0.481 0.124,-0.5 0.159,-0.512C0.194,-0.524 0.24,-0.53 0.299,-0.53C0.361,-0.53 0.406,-0.526 0.436,-0.516C0.465,-0.507 0.49,-0.492 0.51,-0.472C0.529,-0.452 0.546,-0.425 0.559,-0.392L0.37,-0.373C0.365,-0.39 0.357,-0.402 0.346,-0.41C0.33,-0.42 0.311,-0.425 0.289,-0.425C0.267,-0.425 0.25,-0.421 0.24,-0.413C0.23,-0.405 0.225,-0.396 0.225,-0.384C0.225,-0.372 0.231,-0.362 0.244,-0.356C0.257,-0.349 0.285,-0.343 0.329,-0.338C0.395,-0.331 0.444,-0.32 0.477,-0.307C0.509,-0.293 0.533,-0.274 0.551,-0.25C0.568,-0.225 0.576,-0.198 0.576,-0.168C0.576,-0.138 0.567,-0.109 0.549,-0.081C0.531,-0.053 0.503,-0.03 0.464,-0.013C0.425,0.003 0.372,0.012 0.305,0.012C0.21,0.012 0.142,-0.002 0.102,-0.029C0.062,-0.056 0.036,-0.094 0.025,-0.144Z" style="fill:white;fill-rule:nonzero;"/>
        </g>
        <g transform="matrix(50,0,0,50,275.992,256.684)">
            <path d="M0.433,-0.259L0.433,-0.408L0.775,-0.408L0.775,-0.103C0.709,-0.058 0.652,-0.028 0.601,-0.012C0.551,0.004 0.491,0.012 0.422,0.012C0.337,0.012 0.268,-0.002 0.215,-0.031C0.161,-0.06 0.12,-0.103 0.09,-0.161C0.061,-0.218 0.046,-0.284 0.046,-0.358C0.046,-0.436 0.062,-0.504 0.094,-0.562C0.126,-0.62 0.174,-0.663 0.236,-0.693C0.284,-0.716 0.35,-0.728 0.432,-0.728C0.511,-0.728 0.57,-0.721 0.609,-0.707C0.648,-0.692 0.681,-0.67 0.707,-0.64C0.733,-0.61 0.752,-0.572 0.765,-0.525L0.552,-0.487C0.543,-0.514 0.528,-0.535 0.507,-0.549C0.486,-0.564 0.459,-0.571 0.427,-0.571C0.378,-0.571 0.34,-0.554 0.311,-0.52C0.282,-0.487 0.268,-0.433 0.268,-0.36C0.268,-0.283 0.282,-0.228 0.311,-0.194C0.34,-0.161 0.381,-0.145 0.433,-0.145C0.458,-0.145 0.481,-0.148 0.504,-0.155C0.526,-0.162 0.552,-0.175 0.581,-0.192L0.581,-0.259L0.433,-0.259Z" style="fill:white;fill-rule:nonzero;"/>
        </g>
        <g transform="matrix(50,0,0,50,317.643,256.684)">
            <path d="M0.067,-0.716L0.266,-0.716L0.266,-0.581L0.067,-0.581L0.067,-0.716ZM0.067,-0.519L0.266,-0.519L0.266,-0L0.067,-0L0.067,-0.519Z" style="fill:white;fill-rule:nonzero;"/>
        </g>
        <g transform="matrix(50,0,0,50,334.293,256.684)">
            <path d="M0.025,-0.144L0.222,-0.163C0.23,-0.139 0.242,-0.122 0.256,-0.112C0.271,-0.102 0.291,-0.097 0.315,-0.097C0.342,-0.097 0.362,-0.103 0.377,-0.114C0.388,-0.123 0.394,-0.133 0.394,-0.146C0.394,-0.16 0.387,-0.171 0.372,-0.179C0.361,-0.185 0.332,-0.191 0.286,-0.2C0.217,-0.212 0.169,-0.223 0.142,-0.233C0.115,-0.243 0.093,-0.261 0.074,-0.285C0.056,-0.309 0.047,-0.337 0.047,-0.368C0.047,-0.402 0.057,-0.432 0.077,-0.457C0.097,-0.481 0.124,-0.5 0.159,-0.512C0.194,-0.524 0.24,-0.53 0.299,-0.53C0.361,-0.53 0.406,-0.526 0.436,-0.516C0.465,-0.507 0.49,-0.492 0.51,-0.472C0.529,-0.452 0.546,-0.425 0.559,-0.392L0.37,-0.373C0.365,-0.39 0.357,-0.402 0.346,-0.41C0.33,-0.42 0.311,-0.425 0.289,-0.425C0.267,-0.425 0.25,-0.421 0.24,-0.413C0.23,-0.405 0.225,-0.396 0.225,-0.384C0.225,-0.372 0.231,-0.362 0.244,-0.356C0.257,-0.349 0.285,-0.343 0.329,-0.338C0.395,-0.331 0.444,-0.32 0.477,-0.307C0.509,-0.293 0.533,-0.274 0.551,-0.25C0.568,-0.225 0.576,-0.198 0.576,-0.168C0.576,-0.138 0.567,-0.109 0.549,-0.081C0.531,-0.053 0.503,-0.03 0.464,-0.013C0.425,0.003 0.372,0.012 0.305,0.012C0.21,0.012 0.142,-0.002 0.102,-0.029C0.062,-0.056 0.036,-0.094 0.025,-0.144Z" style="fill:white;fill-rule:nonzero;"/>
        </g>
        <g transform="matrix(50,0,0,50,364.835,256.684)">
            <path d="M0.3,-0.716L0.3,-0.519L0.409,-0.519L0.409,-0.373L0.3,-0.373L0.3,-0.189C0.3,-0.167 0.302,-0.153 0.306,-0.145C0.313,-0.134 0.324,-0.129 0.34,-0.129C0.355,-0.129 0.375,-0.133 0.402,-0.142L0.417,-0.004C0.367,0.006 0.321,0.012 0.279,0.012C0.229,0.012 0.193,0.005 0.169,-0.007C0.146,-0.02 0.129,-0.039 0.117,-0.065C0.106,-0.091 0.101,-0.133 0.101,-0.191L0.101,-0.373L0.027,-0.373L0.027,-0.519L0.101,-0.519L0.101,-0.614L0.3,-0.716Z" style="fill:white;fill-rule:nonzero;"/>
        </g>
        <path d="M249.247,254.175L249.247,255.903C249.247,259.975 248.829,262.849 248.24,264.544C247.323,267.182 245.621,269.317 243.144,270.957C240.878,272.458 237.72,273.456 233.512,273.456C231.171,273.456 228.26,273.141 224.789,272.447C221.086,271.706 218.701,268.527 219.38,265.235L220.869,258.009C221.216,256.327 222.329,254.843 223.95,253.904C224.316,253.691 224.701,253.511 225.101,253.365L225.101,230.756C225.101,230.234 225.173,229.727 225.311,229.242C225.173,228.758 225.101,228.251 225.101,227.729L225.101,220.893C225.101,217.441 228.276,214.643 232.193,214.643L242.154,214.643C246.071,214.643 249.247,217.441 249.247,220.893L249.247,227.729C249.247,228.251 249.174,228.758 249.036,229.242C249.174,229.727 249.247,230.234 249.247,230.756L249.247,233.9C248.278,235.126 247.794,236.582 247.794,238.268C247.794,239.829 248.254,241.219 249.173,242.438L249.247,242.53L249.247,249.242L246.695,249.482C247.129,251.214 247.886,252.763 249.192,254.123L249.247,254.175ZM232.193,230.756L242.154,230.756L242.154,255.903C242.154,259.109 241.922,261.38 241.458,262.714C240.995,264.049 240.136,265.131 238.883,265.961C237.63,266.791 235.839,267.206 233.512,267.206C231.591,267.206 229.207,266.922 226.358,266.352L227.848,259.125C228.645,259.288 229.231,259.369 229.605,259.369C230.452,259.369 231.095,259.081 231.534,258.503C231.974,257.925 232.193,256.773 232.193,255.048L232.193,230.756ZM232.193,220.893L242.154,220.893L242.154,227.729L232.193,227.729L232.193,220.893Z"/>
        <path d="M242.154,232.27C242.53,231.559 242.979,230.884 243.495,230.241C245.262,228.041 247.665,226.362 250.766,225.276C253.163,224.437 256.36,223.92 260.392,223.92C264.587,223.92 267.665,224.364 269.664,225.005C272.307,225.851 274.5,227.181 276.267,228.963C277.287,229.992 278.224,231.25 279.031,232.76C278.535,234.613 278.287,236.622 278.287,238.788C278.287,242.499 279.024,245.787 280.497,248.652C280.729,249.103 280.976,249.538 281.241,249.953C280.988,251.911 280.28,253.829 279.085,255.701C277.518,258.155 275.119,260.177 271.745,261.63C269.031,262.798 265.363,263.52 260.685,263.52C253.884,263.52 249.15,262.153 246.264,260.213C244.619,259.108 243.239,257.786 242.151,256.233L242.154,255.903L242.154,244.687L242.363,244.536C242.291,244.412 242.221,244.287 242.154,244.161L242.154,232.27ZM246.695,249.482L256.559,248.554C256.965,249.726 257.535,250.564 258.268,251.069C259,251.573 259.977,251.825 261.197,251.825C262.532,251.825 263.565,251.541 264.298,250.972C264.867,250.55 265.152,250.022 265.152,249.388C265.152,248.673 264.778,248.12 264.029,247.73C263.492,247.454 262.068,247.113 259.757,246.706C256.306,246.105 253.91,245.548 252.567,245.036C251.224,244.524 250.093,243.658 249.173,242.438C248.254,241.219 247.794,239.829 247.794,238.268C247.794,236.56 248.29,235.089 249.283,233.853C250.276,232.617 251.643,231.695 253.385,231.085C255.126,230.475 257.462,230.17 260.392,230.17C263.484,230.17 265.767,230.406 267.24,230.878C268.713,231.35 269.942,232.083 270.926,233.075C271.911,234.068 272.729,235.411 273.38,237.104L263.956,238.032C263.712,237.201 263.305,236.591 262.735,236.2C261.954,235.68 261.01,235.419 259.903,235.419C258.78,235.419 257.962,235.618 257.45,236.016C256.937,236.415 256.681,236.898 256.681,237.467C256.681,238.101 257.006,238.58 257.657,238.905C258.308,239.23 259.724,239.523 261.905,239.783C265.209,240.157 267.667,240.677 269.278,241.344C270.89,242.01 272.123,242.962 272.977,244.197C273.832,245.433 274.259,246.791 274.259,248.27C274.259,249.766 273.807,251.221 272.904,252.636C272,254.051 270.576,255.177 268.631,256.014C266.686,256.851 264.037,257.27 260.685,257.27C255.948,257.27 252.575,256.594 250.565,255.243C248.555,253.893 247.265,251.972 246.695,249.482Z"/>
        <path d="M271.591,233.834C272.074,230.895 273.004,228.232 274.339,225.839C276.621,221.747 279.979,218.653 284.41,216.518C287.68,214.96 292.045,214.033 297.574,214.033C302.75,214.033 306.597,214.646 309.164,215.583C312.304,216.73 314.914,218.505 316.986,220.916C318.798,223.024 320.221,225.672 321.133,228.909C321.304,229.518 321.369,230.141 321.33,230.756L321.012,230.756L321.012,232.293C320.934,232.513 320.842,232.729 320.736,232.94C320.834,233.077 320.927,233.218 321.012,233.363L321.012,254.441C320.547,255.225 319.891,255.921 319.077,256.476C315.097,259.189 311.541,260.98 308.482,261.96C305.283,262.984 301.499,263.544 297.11,263.544C291.329,263.544 286.655,262.419 283.011,260.448C279.178,258.374 276.145,255.332 274.036,251.231L273.815,250.784C274.112,249.96 274.259,249.122 274.259,248.27C274.259,246.791 273.832,245.433 272.977,244.197C272.552,243.583 272.034,243.039 271.422,242.566C271.27,241.348 271.194,240.089 271.194,238.788C271.194,238.291 271.205,237.799 271.23,237.315L273.38,237.104C272.882,235.809 272.286,234.718 271.591,233.834ZM297.647,243.72L297.647,236.274L314.737,236.274L314.737,251.533C311.466,253.762 308.573,255.28 306.058,256.086C303.543,256.891 300.561,257.294 297.11,257.294C292.862,257.294 289.4,256.57 286.722,255.121C284.045,253.673 281.97,251.516 280.497,248.652C279.024,245.787 278.287,242.499 278.287,238.788C278.287,234.882 279.093,231.485 280.704,228.596C282.315,225.707 284.675,223.513 287.784,222.016C290.209,220.86 293.473,220.283 297.574,220.283C301.529,220.283 304.487,220.641 306.449,221.357C308.41,222.073 310.038,223.184 311.332,224.689C312.625,226.195 313.598,228.103 314.249,230.414L303.58,232.319C303.141,230.968 302.396,229.934 301.346,229.218C300.296,228.502 298.958,228.144 297.33,228.144C294.905,228.144 292.972,228.986 291.532,230.671C290.091,232.355 289.371,235.02 289.371,238.666C289.371,242.54 290.099,245.307 291.556,246.967C293.013,248.627 295.043,249.457 297.647,249.457C298.884,249.457 300.064,249.278 301.187,248.92C302.311,248.562 303.596,247.952 305.045,247.089L305.045,243.72L297.647,243.72Z"/>
        <path d="M314.026,229.684C314.055,229.522 314.094,229.363 314.139,229.206C313.995,228.71 313.919,228.191 313.919,227.656L313.919,220.893C313.919,217.441 317.095,214.643 321.012,214.643L330.948,214.643C334.865,214.643 338.041,217.441 338.041,220.893L338.041,227.656C338.041,228.191 337.965,228.71 337.821,229.206C337.965,229.702 338.041,230.221 338.041,230.756L338.041,233.964C337.104,235.176 336.637,236.611 336.637,238.268C336.637,239.829 337.096,241.219 338.016,242.438L338.041,242.469L338.041,249.246L335.538,249.482C335.972,251.214 336.728,252.763 338.035,254.123L338.041,254.129L338.041,256.684C338.041,260.136 334.865,262.934 330.948,262.934L321.012,262.934C317.095,262.934 313.919,260.136 313.919,256.684L313.919,252.076L314.737,251.533L314.737,236.274L313.919,236.274L313.919,230.756L313.929,230.471L314.249,230.414L314.026,229.684ZM321.012,230.756L330.948,230.756L330.948,256.684L321.012,256.684L321.012,230.756ZM321.012,220.893L330.948,220.893L330.948,227.656L321.012,227.656L321.012,220.893Z"/>
        <path d="M330.948,232.361C331.334,231.617 331.799,230.911 332.337,230.241C334.105,228.041 336.508,226.362 339.609,225.276C342.005,224.437 345.203,223.92 349.234,223.92C353.429,223.92 356.508,224.364 358.506,225.005C361.149,225.851 363.343,227.181 365.109,228.963C365.64,229.497 366.147,230.094 366.625,230.756L366.202,230.756L366.202,238.032L369.234,238.032C369.091,238.884 368.746,239.712 368.208,240.457C368.096,240.613 367.977,240.763 367.848,240.906L367.877,240.945C368.836,242.332 369.5,243.804 369.864,245.361L369.864,247.151C369.864,248.374 369.914,249.453 370.019,250.39C369.722,252.196 369.034,253.969 367.928,255.701C366.361,258.155 363.961,260.177 360.587,261.63C357.873,262.798 354.206,263.52 349.527,263.52C342.726,263.52 337.993,262.153 335.107,260.213C333.439,259.093 332.044,257.75 330.948,256.17L330.948,244.723L331.206,244.536C331.116,244.381 331.03,244.225 330.948,244.067L330.948,232.361ZM335.538,249.482L345.401,248.554C345.808,249.726 346.378,250.564 347.11,251.069C347.843,251.573 348.819,251.825 350.04,251.825C351.375,251.825 352.408,251.541 353.141,250.972C353.71,250.55 353.995,250.022 353.995,249.388C353.995,248.673 353.621,248.12 352.872,247.73C352.335,247.454 350.911,247.113 348.6,246.706C345.149,246.105 342.752,245.548 341.41,245.036C340.067,244.524 338.936,243.658 338.016,242.438C337.096,241.219 336.637,239.829 336.637,238.268C336.637,236.56 337.133,235.089 338.126,233.853C339.119,232.617 340.486,231.695 342.228,231.085C343.969,230.475 346.305,230.17 349.234,230.17C352.327,230.17 354.61,230.406 356.082,230.878C357.555,231.35 358.784,232.083 359.769,233.075C360.754,234.068 361.572,235.411 362.223,237.104L352.799,238.032C352.555,237.201 352.148,236.591 351.578,236.2C350.797,235.68 349.853,235.419 348.746,235.419C347.623,235.419 346.805,235.618 346.292,236.016C345.78,236.415 345.523,236.898 345.523,237.467C345.523,238.101 345.849,238.58 346.5,238.905C347.151,239.23 348.567,239.523 350.748,239.783C354.052,240.157 356.51,240.677 358.121,241.344C359.732,242.01 360.965,242.962 361.82,244.197C362.674,245.433 363.102,246.791 363.102,248.27C363.102,249.766 362.65,251.221 361.747,252.636C360.843,254.051 359.419,255.177 357.474,256.014C355.529,256.851 352.88,257.27 349.527,257.27C344.791,257.27 341.418,256.594 339.408,255.243C337.398,253.893 336.108,251.972 335.538,249.482Z"/>
        <path d="M359.109,232.483L359.109,230.756C359.109,228.382 360.611,226.318 362.823,225.26C363.081,223.323 364.359,221.586 366.3,220.592L376.261,215.49C378.455,214.366 381.163,214.36 383.362,215.476C385.562,216.591 386.918,218.657 386.918,220.893L386.918,224.673C390.053,225.318 392.387,227.797 392.387,230.756L392.387,238.032C392.387,240.712 390.471,242.999 387.781,243.886C388.104,244.008 388.418,244.155 388.72,244.323C390.576,245.358 391.783,247.092 391.989,249.019L392.722,255.879C393.05,258.958 390.774,261.786 387.367,262.53C384.301,263.201 381.436,263.52 378.775,263.52C374.593,263.52 371.577,262.717 369.596,261.645C367.147,260.32 365.256,258.364 364.083,255.664C363.522,254.373 363.077,252.505 362.882,250.043C363.029,249.459 363.102,248.868 363.102,248.27C363.102,247.521 362.992,246.802 362.772,246.116L362.772,243.502C360.588,242.438 359.109,240.387 359.109,238.032L359.109,237.41L362.223,237.104C361.572,235.411 360.754,234.068 359.769,233.075C359.561,232.866 359.342,232.668 359.109,232.483ZM379.825,220.893L379.825,230.756L385.294,230.756L385.294,238.032L379.825,238.032L379.825,247.217C379.825,248.322 379.931,249.053 380.143,249.41C380.468,249.962 381.038,250.239 381.852,250.239C382.584,250.239 383.609,250.027 384.928,249.605L385.66,256.464C383.202,257.001 380.908,257.27 378.775,257.27C376.301,257.27 374.478,256.953 373.307,256.319C372.135,255.685 371.268,254.722 370.707,253.429C370.145,252.137 369.864,250.044 369.864,247.151L369.864,238.032L366.202,238.032L366.202,230.756L369.864,230.756L369.864,225.995L379.825,220.893Z"/>
    </g>
    <g transform="matrix(2.06347,0,0,2.34166,-373.661,-312.389)">
        <g transform="matrix(50,0,0,50,228.8,256.684)">
            <path d="M0.068,-0.716L0.267,-0.716L0.267,-0.579L0.068,-0.579L0.068,-0.716ZM0.068,-0.519L0.267,-0.519L0.267,-0.016C0.267,0.049 0.262,0.094 0.253,0.121C0.244,0.147 0.227,0.169 0.202,0.186C0.177,0.202 0.141,0.21 0.094,0.21C0.056,0.21 0.008,0.205 -0.049,0.193L-0.019,0.049C-0.003,0.052 0.009,0.054 0.016,0.054C0.033,0.054 0.046,0.048 0.055,0.036C0.063,0.025 0.068,0.002 0.068,-0.033L0.068,-0.519Z" style="fill:white;fill-rule:nonzero;"/>
        </g>
        <g transform="matrix(50,0,0,50,245.45,256.684)">
            <path d="M0.025,-0.144L0.222,-0.163C0.23,-0.139 0.242,-0.122 0.256,-0.112C0.271,-0.102 0.291,-0.097 0.315,-0.097C0.342,-0.097 0.362,-0.103 0.377,-0.114C0.388,-0.123 0.394,-0.133 0.394,-0.146C0.394,-0.16 0.387,-0.171 0.372,-0.179C0.361,-0.185 0.332,-0.191 0.286,-0.2C0.217,-0.212 0.169,-0.223 0.142,-0.233C0.115,-0.243 0.093,-0.261 0.074,-0.285C0.056,-0.309 0.047,-0.337 0.047,-0.368C0.047,-0.402 0.057,-0.432 0.077,-0.457C0.097,-0.481 0.124,-0.5 0.159,-0.512C0.194,-0.524 0.24,-0.53 0.299,-0.53C0.361,-0.53 0.406,-0.526 0.436,-0.516C0.465,-0.507 0.49,-0.492 0.51,-0.472C0.529,-0.452 0.546,-0.425 0.559,-0.392L0.37,-0.373C0.365,-0.39 0.357,-0.402 0.346,-0.41C0.33,-0.42 0.311,-0.425 0.289,-0.425C0.267,-0.425 0.25,-0.421 0.24,-0.413C0.23,-0.405 0.225,-0.396 0.225,-0.384C0.225,-0.372 0.231,-0.362 0.244,-0.356C0.257,-0.349 0.285,-0.343 0.329,-0.338C0.395,-0.331 0.444,-0.32 0.477,-0.307C0.509,-0.293 0.533,-0.274 0.551,-0.25C0.568,-0.225 0.576,-0.198 0.576,-0.168C0.576,-0.138 0.567,-0.109 0.549,-0.081C0.531,-0.053 0.503,-0.03 0.464,-0.013C0.425,0.003 0.372,0.012 0.305,0.012C0.21,0.012 0.142,-0.002 0.102,-0.029C0.062,-0.056 0.036,-0.094 0.025,-0.144Z" style="fill:white;fill-rule:nonzero;"/>
        </g>
        <g transform="matrix(50,0,0,50,275.992,256.684)">
            <path d="M0.433,-0.259L0.433,-0.408L0.775,-0.408L0.775,-0.103C0.709,-0.058 0.652,-0.028 0.601,-0.012C0.551,0.004 0.491,0.012 0.422,0.012C0.337,0.012 0.268,-0.002 0.215,-0.031C0.161,-0.06 0.12,-0.103 0.09,-0.161C0.061,-0.218 0.046,-0.284 0.046,-0.358C0.046,-0.436 0.062,-0.504 0.094,-0.562C0.126,-0.62 0.174,-0.663 0.236,-0.693C0.284,-0.716 0.35,-0.728 0.432,-0.728C0.511,-0.728 0.57,-0.721 0.609,-0.707C0.648,-0.692 0.681,-0.67 0.707,-0.64C0.733,-0.61 0.752,-0.572 0.765,-0.525L0.552,-0.487C0.543,-0.514 0.528,-0.535 0.507,-0.549C0.486,-0.564 0.459,-0.571 0.427,-0.571C0.378,-0.571 0.34,-0.554 0.311,-0.52C0.282,-0.487 0.268,-0.433 0.268,-0.36C0.268,-0.283 0.282,-0.228 0.311,-0.194C0.34,-0.161 0.381,-0.145 0.433,-0.145C0.458,-0.145 0.481,-0.148 0.504,-0.155C0.526,-0.162 0.552,-0.175 0.581,-0.192L0.581,-0.259L0.433,-0.259Z" style="fill:white;fill-rule:nonzero;"/>
        </g>
        <g transform="matrix(50,0,0,50,317.643,256.684)">
            <path d="M0.067,-0.716L0.266,-0.716L0.266,-0.581L0.067,-0.581L0.067,-0.716ZM0.067,-0.519L0.266,-0.519L0.266,-0L0.067,-0L0.067,-0.519Z" style="fill:white;fill-rule:nonzero;"/>
        </g>
        <g transform="matrix(50,0,0,50,334.293,256.684)">
            <path d="M0.025,-0.144L0.222,-0.163C0.23,-0.139 0.242,-0.122 0.256,-0.112C0.271,-0.102 0.291,-0.097 0.315,-0.097C0.342,-0.097 0.362,-0.103 0.377,-0.114C0.388,-0.123 0.394,-0.133 0.394,-0.146C0.394,-0.16 0.387,-0.171 0.372,-0.179C0.361,-0.185 0.332,-0.191 0.286,-0.2C0.217,-0.212 0.169,-0.223 0.142,-0.233C0.115,-0.243 0.093,-0.261 0.074,-0.285C0.056,-0.309 0.047,-0.337 0.047,-0.368C0.047,-0.402 0.057,-0.432 0.077,-0.457C0.097,-0.481 0.124,-0.5 0.159,-0.512C0.194,-0.524 0.24,-0.53 0.299,-0.53C0.361,-0.53 0.406,-0.526 0.436,-0.516C0.465,-0.507 0.49,-0.492 0.51,-0.472C0.529,-0.452 0.546,-0.425 0.559,-0.392L0.37,-0.373C0.365,-0.39 0.357,-0.402 0.346,-0.41C0.33,-0.42 0.311,-0.425 0.289,-0.425C0.267,-0.425 0.25,-0.421 0.24,-0.413C0.23,-0.405 0.225,-0.396 0.225,-0.384C0.225,-0.372 0.231,-0.362 0.244,-0.356C0.257,-0.349 0.285,-0.343 0.329,-0.338C0.395,-0.331 0.444,-0.32 0.477,-0.307C0.509,-0.293 0.533,-0.274 0.551,-0.25C0.568,-0.225 0.576,-0.198 0.576,-0.168C0.576,-0.138 0.567,-0.109 0.549,-0.081C0.531,-0.053 0.503,-0.03 0.464,-0.013C0.425,0.003 0.372,0.012 0.305,0.012C0.21,0.012 0.142,-0.002 0.102,-0.029C0.062,-0.056 0.036,-0.094 0.025,-0.144Z" style="fill:white;fill-rule:nonzero;"/>
        </g>
        <g transform="matrix(50,0,0,50,364.835,256.684)">
            <path d="M0.3,-0.716L0.3,-0.519L0.409,-0.519L0.409,-0.373L0.3,-0.373L0.3,-0.189C0.3,-0.167 0.302,-0.153 0.306,-0.145C0.313,-0.134 0.324,-0.129 0.34,-0.129C0.355,-0.129 0.375,-0.133 0.402,-0.142L0.417,-0.004C0.367,0.006 0.321,0.012 0.279,0.012C0.229,0.012 0.193,0.005 0.169,-0.007C0.146,-0.02 0.129,-0.039 0.117,-0.065C0.106,-0.091 0.101,-0.133 0.101,-0.191L0.101,-0.373L0.027,-0.373L0.027,-0.519L0.101,-0.519L0.101,-0.614L0.3,-0.716Z" style="fill:white;fill-rule:nonzero;"/>
        </g>
    </g>
</svg>
