<?xml version="1.0" encoding="UTF-8" standalone="no"?>
<!DOCTYPE svg PUBLIC "-//W3C//DTD SVG 1.1//EN" "http://www.w3.org/Graphics/SVG/1.1/DTD/svg11.dtd">
<svg width="100%" height="100%" viewBox="0 0 512 512" version="1.1" xmlns="http://www.w3.org/2000/svg" xmlns:xlink="http://www.w3.org/1999/xlink" xml:space="preserve" xmlns:serif="http://www.serif.com/" style="fill-rule:evenodd;clip-rule:evenodd;stroke-linejoin:round;stroke-miterlimit:2;">
    <style>
    .main { fill: #333; }
    @media (prefers-color-scheme: dark) {
      .main { fill: #CCC; }
    }
    </style>
    <g transform="matrix(6.18636e-17,1.01031,-1.00655,6.16336e-17,513.289,-6.32595)">
        <path d="M500.058,42.604C500.058,29.084 489.123,18.107 475.653,18.107L280.406,18.107C266.936,18.107 256,29.084 256,42.604L256,470.02C256,483.54 266.936,494.517 280.406,494.517L475.653,494.517C489.123,494.517 500.058,483.54 500.058,470.02L500.058,42.604Z" class="main"/>
    </g>
    <g transform="matrix(6.18636e-17,1.01031,-1.39,8.51131e-17,741.548,-6.32595)">
        <path d="M243.434,185.412C243.434,180.95 238.45,177.327 232.31,177.327L26.656,177.327C20.516,177.327 15.532,180.95 15.532,185.412L15.532,281.631C15.532,286.094 20.516,289.717 26.656,289.717L232.31,289.717C238.45,289.717 243.434,286.094 243.434,281.631L243.434,185.412Z" class="main"/>
    </g>
    <g transform="matrix(6.18636e-17,1.01031,-1.30612,7.99769e-17,560.306,-6.32595)">
        <path d="M243.434,185.932C243.434,181.183 238.45,177.327 232.31,177.327L26.656,177.327C20.516,177.327 15.532,181.183 15.532,185.932L15.532,281.112C15.532,285.861 20.516,289.717 26.656,289.717L232.31,289.717C238.45,289.717 243.434,285.861 243.434,281.112L243.434,185.932Z" class="main"/>
    </g>
    <g transform="matrix(6.18636e-17,1.01031,-1.38441,8.47706e-17,416.619,-6.32595)">
        <path d="M243.434,185.445C243.434,180.965 238.45,177.327 232.31,177.327L26.656,177.327C20.516,177.327 15.532,180.965 15.532,185.445L15.532,281.599C15.532,286.079 20.516,289.717 26.656,289.717L232.31,289.717C238.45,289.717 243.434,286.079 243.434,281.599L243.434,185.445Z" class="main"/>
    </g>
</svg>
