<?xml version="1.0" encoding="UTF-8" standalone="no"?>
<!DOCTYPE svg PUBLIC "-//W3C//DTD SVG 1.1//EN" "http://www.w3.org/Graphics/SVG/1.1/DTD/svg11.dtd">
<svg width="100%" height="100%" viewBox="0 0 512 512" version="1.1" xmlns="http://www.w3.org/2000/svg" xmlns:xlink="http://www.w3.org/1999/xlink" xml:space="preserve" xmlns:serif="http://www.serif.com/" style="fill-rule:evenodd;clip-rule:evenodd;stroke-linejoin:round;stroke-miterlimit:2;">
    <style>
    .main { fill: #333; }
    @media (prefers-color-scheme: dark) {
      .main { fill: #CCC; }
    }
    </style>
    <path d="M15,14.673L15,183.082L82.195,183.082L82.195,81.868L183.082,81.868L183.082,14.673L15,14.673Z" class="main"/>
    <g transform="matrix(6.12323e-17,1,-1,6.12323e-17,512,0)">
        <path d="M15,14.673L15,183.082L82.195,183.082L82.195,81.868L183.082,81.868L183.082,14.673L15,14.673Z" class="main"/>
    </g>
    <g transform="matrix(-1,1.22465e-16,-1.22465e-16,-1,512.327,512)">
        <path d="M15,14.673L15,183.082L82.195,183.082L82.195,81.868L183.082,81.868L183.082,14.673L15,14.673Z" class="main"/>
    </g>
    <g transform="matrix(-1.83697e-16,-1,1,-1.83697e-16,0.327,512)">
        <path d="M15,14.673L15,183.082L82.195,183.082L82.195,81.868L183.082,81.868L183.082,14.673L15,14.673Z" class="main"/>
    </g>
</svg>
