<?xml version="1.0" encoding="UTF-8" standalone="no"?>
<!DOCTYPE svg PUBLIC "-//W3C//DTD SVG 1.1//EN" "http://www.w3.org/Graphics/SVG/1.1/DTD/svg11.dtd">
<svg width="100%" height="100%" viewBox="0 0 512 512" version="1.1" xmlns="http://www.w3.org/2000/svg" xmlns:xlink="http://www.w3.org/1999/xlink" xml:space="preserve" xmlns:serif="http://www.serif.com/" style="fill-rule:evenodd;clip-rule:evenodd;stroke-linejoin:round;stroke-miterlimit:2;">
    <style>
    .main { fill: #333; }
    @media (prefers-color-scheme: dark) {
      .main { fill: #CCC; }
    }
    </style>
    <path d="M293.463,49.586C304.909,51.653 316.034,54.649 326.767,58.501L344.219,28.273L409.108,65.737L391.618,96.03C400.383,103.47 408.529,111.616 415.97,120.382L446.263,102.892L483.727,167.781L453.499,185.233C457.347,195.956 460.346,207.085 462.414,218.537L497.327,218.537L497.327,293.463L462.414,293.463C460.347,304.909 457.351,316.034 453.499,326.767L483.727,344.219L446.263,409.108L415.97,391.618C408.53,400.383 400.384,408.529 391.618,415.97L409.108,446.263L344.219,483.727L326.767,453.499C316.044,457.347 304.915,460.346 293.463,462.414L293.463,497.327L218.537,497.327L218.537,462.414C207.091,460.347 195.966,457.351 185.233,453.499L167.781,483.727L102.892,446.263L120.382,415.97C111.617,408.53 103.471,400.384 96.03,391.618L65.737,409.108L28.273,344.219L58.501,326.767C54.653,316.044 51.654,304.915 49.586,293.463L14.673,293.463L14.673,218.537L49.586,218.537C51.653,207.091 54.649,195.966 58.501,185.233L28.273,167.781L65.737,102.892L96.03,120.382C103.47,111.617 111.616,103.471 120.382,96.03L102.892,65.737L167.781,28.273L185.233,58.501C195.956,54.653 207.085,51.654 218.537,49.586L218.537,14.673L293.463,14.673L293.463,49.586Z" class="main"/>
</svg>
