<?xml version="1.0" encoding="UTF-8" standalone="no"?>
<!DOCTYPE svg PUBLIC "-//W3C//DTD SVG 1.1//EN" "http://www.w3.org/Graphics/SVG/1.1/DTD/svg11.dtd">
<svg width="100%" height="100%" viewBox="0 0 512 512" version="1.1" xmlns="http://www.w3.org/2000/svg" xmlns:xlink="http://www.w3.org/1999/xlink" xml:space="preserve" xmlns:serif="http://www.serif.com/" style="fill-rule:evenodd;clip-rule:evenodd;stroke-linejoin:round;stroke-miterlimit:2;">
    <g transform="matrix(-1,1.22465e-16,-1.22465e-16,-1,227.702,227.375)">
        <path d="M15,14.673L15,183.082L82.195,183.082L82.195,81.868L183.082,81.868L183.082,14.673L15,14.673Z" style="fill:rgb(235,235,235);"/>
    </g>
    <g transform="matrix(6.12323e-17,-1,1,6.12323e-17,284.625,227.375)">
        <path d="M15,14.673L15,183.082L82.195,183.082L82.195,81.868L183.082,81.868L183.082,14.673L15,14.673Z" style="fill:rgb(235,235,235);"/>
    </g>
    <g transform="matrix(1,-2.44929e-16,2.44929e-16,1,284.298,284.625)">
        <path d="M15,14.673L15,183.082L82.195,183.082L82.195,81.868L183.082,81.868L183.082,14.673L15,14.673Z" style="fill:rgb(235,235,235);"/>
    </g>
    <g transform="matrix(3.06162e-16,1,-1,3.06162e-16,227.702,284.298)">
        <path d="M15,14.673L15,183.082L82.195,183.082L82.195,81.868L183.082,81.868L183.082,14.673L15,14.673Z" style="fill:rgb(235,235,235);"/>
    </g>
</svg>
